<svg width="232" height="163" viewBox="0 0 232 163" fill="none" xmlns="http://www.w3.org/2000/svg">
<path d="M115.989 158.288C76.2468 150.334 47.4287 113.01 47.4287 69.514V29.927C47.4287 28.327 47.9543 26.7728 48.9142 25.4928C49.874 24.2129 51.2452 23.2758 52.7992 22.8415L111.784 5.745C114.526 4.94503 117.451 4.94503 120.217 5.745L179.201 22.8415C180.755 23.2986 182.103 24.2129 183.086 25.4928C184.046 26.7728 184.572 28.327 184.572 29.927V69.514C184.549 113.032 155.731 150.38 115.989 158.288Z" fill="#69B42E"/>
<path fill-rule="evenodd" clip-rule="evenodd" d="M115.874 5.14545C114.494 5.15614 113.117 5.35598 111.784 5.74497L52.7992 22.8415C51.2452 23.2757 49.874 24.2129 48.9142 25.4928C47.9543 26.7728 47.4287 28.327 47.4287 29.9269V69.514C47.4287 112.968 76.1916 150.262 115.874 158.265V5.14545Z" fill="white" fill-opacity="0.15"/>
<path fill-rule="evenodd" clip-rule="evenodd" d="M97.7144 46.2199C97.7144 43.6951 99.7611 41.6484 102.286 41.6484H129.714C132.239 41.6484 134.286 43.6951 134.286 46.2199V105.648C134.286 108.173 132.239 110.22 129.714 110.22H102.286C99.7611 110.22 97.7144 108.173 97.7144 105.648V46.2199ZM118.057 106.334C118.057 107.47 117.136 108.391 116 108.391C114.864 108.391 113.943 107.47 113.943 106.334C113.943 105.198 114.864 104.277 116 104.277C117.136 104.277 118.057 105.198 118.057 106.334ZM102.717 43.9342H107.07V44.8484C107.07 45.6059 107.684 46.2199 108.442 46.2199H122.613C123.37 46.2199 123.984 45.6059 123.984 44.8484V43.9342H129.283C130.784 43.9342 132 45.1507 132 46.6514V100.645C132 102.146 130.784 103.363 129.283 103.363H102.717C101.217 103.363 100 102.146 100 100.645V46.6514C100 45.1507 101.217 43.9342 102.717 43.9342Z" fill="white"/>
<path fill-rule="evenodd" clip-rule="evenodd" d="M107.07 43.9342H102.717C101.217 43.9342 100 45.1507 100 46.6514V100.645C100 102.146 101.217 103.363 102.717 103.363H129.283C130.784 103.363 132 102.146 132 100.645V46.6514C132 45.1507 130.784 43.9342 129.283 43.9342H123.984V44.8484C123.984 45.6059 123.37 46.2199 122.613 46.2199H108.442C107.684 46.2199 107.07 45.6059 107.07 44.8484V43.9342Z" fill="white" fill-opacity="0.35"/>
</svg>
